<?xml version="1.0" encoding="utf-8"?>
<!-- Generator: Adobe Illustrator 22.1.0, SVG Export Plug-In . SVG Version: 6.00 Build 0)  -->
<svg version="1.1" id="Layer_1" xmlns="http://www.w3.org/2000/svg" xmlns:xlink="http://www.w3.org/1999/xlink" x="0px" y="0px"
	 viewBox="0 0 256 256" enable-background="new 0 0 256 256" xml:space="preserve">
<g>
	<g id="Ellipse_3_copy">
		<g>
			<path fill="#565656" d="M242,88.6l-6.6,6.2c2.8,9.4,4.3,19.4,4.3,29.7c0,57.9-47,104.9-105,104.9s-105-47-105-104.9
				c0-57.9,47-104.9,105-104.9c31.5,0,59.7,13.8,78.9,35.8c1.2-0.6,2.4-1.2,3.7-1.8c1.4-0.6,2.7-1.2,4-1.7
				c-20.8-24.7-51.9-40.3-86.6-40.3c-62.5,0-113.2,50.6-113.2,113.1c0,62.4,50.7,113.1,113.2,113.1c62.5,0,113.2-50.6,113.2-113.1
				C247.8,112,245.7,99.9,242,88.6z"/>
		</g>
	</g>
	<g id="Rectangle_8_copy">
		<g>
			<path fill="#565656" d="M248.2,82.7l-18.5,17.4c1.9,7.6,3,15.6,3,23.9c0,53.7-43.6,97.3-97.4,97.3c-50.6,0-92.1-38.5-96.9-87.8
				H54L27,98.1L0,133.4h14.8c4.3,62.7,56.5,112.3,120.4,112.3c66.7,0,120.7-54,120.7-120.6C256,110.2,253.2,95.9,248.2,82.7z"/>
		</g>
	</g>
	<g id="Ellipse_4">
		<g>
			<path fill-rule="evenodd" clip-rule="evenodd" fill="#578A86" d="M182.7,96.9c-35.3,32.9-47.4,49.3-47.4,49.3
				s-19.9-26.3-38.9-35.6c-19.3-9.4-33.4,11-33.4,11s27.6,20.9,44.8,40.5c17.9,20.4,29.9,30.9,29.9,30.9s10.2-18.6,24.2-37.6
				c15.2-20.7,34.2-42.4,42.9-52.6C225.6,78.5,250.7,59,250.7,59S215.3,66.6,182.7,96.9z M135.3,116.8c9.2,0,16.7-11.2,16.7-25
				c0-13.8-7.5-25-16.7-25c-9.2,0-16.7,11.2-16.7,25C118.6,105.6,126.1,116.8,135.3,116.8z"/>
		</g>
	</g>
</g>
<g>
</g>
<g>
</g>
<g>
</g>
<g>
</g>
<g>
</g>
<g>
</g>
<g>
</g>
<g>
</g>
<g>
</g>
<g>
</g>
<g>
</g>
<g>
</g>
<g>
</g>
<g>
</g>
<g>
</g>
</svg>
